<svg width="54" height="36" viewBox="0 0 54 36" fill="none" xmlns="http://www.w3.org/2000/svg">
<g id="ci" clip-path="url(#clip0_123_477)">
<path id="Vector" d="M6.75571 31.1577H6.70636C5.45249 31.1577 4.43604 32.1742 4.43604 33.4281V33.4716C4.43604 34.7255 5.45249 35.7419 6.70636 35.7419H6.75571C8.00958 35.7419 9.02604 34.7255 9.02604 33.4716V33.4281C9.02604 32.1742 8.00958 31.1577 6.75571 31.1577Z" fill="white"/>
<path id="Vector_2" d="M5.37968 9.76675H2.27032C1.01646 9.76675 0 10.7832 0 12.0371V12.0806C0 13.3345 1.01646 14.3509 2.27032 14.3509H5.37968C6.63354 14.3509 7.65 13.3345 7.65 12.0806V12.0371C7.65 10.7832 6.63354 9.76675 5.37968 9.76675Z" fill="white"/>
<path id="Vector_3" d="M13.1488 0.903229H11.5694C10.3155 0.903229 9.29907 1.91969 9.29907 3.17355V3.2171C9.29907 4.47096 10.3155 5.48742 11.5694 5.48742H13.1488C14.4026 5.48742 15.4191 4.47096 15.4191 3.2171V3.17355C15.4191 1.91969 14.4026 0.903229 13.1488 0.903229Z" fill="white"/>
<path id="Vector_4" d="M50.554 14.3916C51.599 13.1292 52.3054 11.6215 52.6066 10.0106C53.1273 7.25839 52.3531 5.05194 50.284 3.39129C48.215 1.73065 44.8608 0.901297 40.2214 0.903232H20.1892C19.5814 0.903232 18.9985 1.14447 18.5684 1.57397C18.1384 2.00347 17.8964 2.58609 17.8956 3.19388C17.8956 3.80216 18.1373 4.38553 18.5674 4.81566C18.9975 5.24578 19.5809 5.48742 20.1892 5.48742H21.8905C22.458 5.48742 23.0022 5.71285 23.4035 6.11412C23.8047 6.51539 24.0302 7.05962 24.0302 7.6271C24.0302 8.19458 23.8047 8.73881 23.4035 9.14008C23.0022 9.54134 22.458 9.76677 21.8905 9.76677H12.8673C12.5661 9.76639 12.2677 9.82534 11.9893 9.94025C11.7109 10.0552 11.4579 10.2238 11.2446 10.4365C11.0314 10.6492 10.8621 10.9018 10.7465 11.1799C10.6309 11.4581 10.5712 11.7562 10.5708 12.0574C10.5716 12.666 10.8139 13.2493 11.2444 13.6794C11.675 14.1094 12.2587 14.351 12.8673 14.351H16.444C16.7246 14.351 17.0025 14.4062 17.2617 14.5136C17.521 14.621 17.7565 14.7784 17.955 14.9768C18.1534 15.1752 18.3108 15.4108 18.4181 15.67C18.5255 15.9293 18.5808 16.2071 18.5808 16.4877C18.5808 17.0552 18.3554 17.5994 17.9541 18.0007C17.5528 18.402 17.0086 18.6274 16.4411 18.6274H15.0098C14.7073 18.6274 14.4077 18.6872 14.1283 18.8033C13.849 18.9195 13.5953 19.0897 13.3819 19.3041C13.1685 19.5186 12.9996 19.7731 12.8848 20.0531C12.7701 20.3331 12.7119 20.6329 12.7134 20.9355C12.7138 21.2367 12.7735 21.5348 12.8891 21.813C13.0047 22.0911 13.174 22.3437 13.3872 22.5564C13.6004 22.7691 13.8535 22.9377 14.1319 23.0526C14.4103 23.1676 14.7086 23.2265 15.0098 23.2261H17.3324L15.8285 31.1722H13.4479C12.8393 31.1722 12.2557 31.4138 11.8251 31.8438C11.3945 32.2739 11.1522 32.8572 11.1514 33.4658C11.1537 33.767 11.2153 34.0648 11.3327 34.3422C11.4501 34.6196 11.6209 34.8711 11.8355 35.0825C12.0501 35.2938 12.3042 35.4609 12.5834 35.574C12.8625 35.6872 13.1612 35.7442 13.4624 35.7419H34.6211C39.4056 35.7419 43.2205 34.9039 46.0656 33.2277C48.9108 31.5516 50.6218 29.1874 51.1985 26.1352C51.5856 24.0797 51.3534 22.3213 50.5018 20.86C49.6502 19.3987 48.2653 18.2877 46.3473 17.5271C47.9718 16.8191 49.4113 15.7461 50.554 14.3916ZM39.5856 24.7939C39.2411 26.6171 37.7721 27.5287 35.1785 27.5287H28.0976L29.134 22.0561H36.215C38.8085 22.0561 39.9321 22.9687 39.5856 24.7939ZM40.4189 11.7032C40.0918 13.4277 38.6489 14.29 36.0902 14.29H30.606L31.5843 9.11645H37.0685C39.6292 9.11645 40.746 9.97871 40.4189 11.7032Z" fill="white"/>
</g>
<defs>
<clipPath id="clip0_123_477">
<rect width="54" height="34.8388" fill="white" transform="translate(0 0.903214)"/>
</clipPath>
</defs>
</svg>
