<svg width="24" height="24" viewBox="0 0 24 24" fill="none" xmlns="http://www.w3.org/2000/svg">
<g id="Frame" clip-path="url(#clip0_292_880)">
<path id="Vector" d="M12 24C18.6274 24 24 18.6274 24 12C24 5.37258 18.6274 0 12 0C5.37258 0 0 5.37258 0 12C0 18.6274 5.37258 24 12 24Z" fill="#F26B6B"/>
<path id="Vector_2" d="M12 14.1818C14.4437 14.1818 16.7128 15.2727 18.24 17.2364C18.5455 17.6291 18.4582 18.1527 18.1091 18.4582C17.7164 18.7636 17.1928 18.6764 16.8873 18.3273C15.7091 16.8 13.92 15.9709 12 15.9709C10.08 15.9709 8.29093 16.8436 7.11275 18.3273C6.8073 18.72 6.28366 18.7636 5.89093 18.4582C5.49821 18.1527 5.45457 17.6291 5.76002 17.2364C7.2873 15.2727 9.55639 14.1818 12 14.1818Z" fill="#35332C"/>
<path id="Vector_3" d="M6.67627 7.50549C6.15263 7.81095 5.7599 8.37822 5.67263 9.03277C5.54172 10.1673 6.50172 11.2146 7.63627 11.1709C8.72718 11.1709 9.5999 10.2982 9.5999 9.20731C9.5999 9.03277 9.55627 8.85822 9.51263 8.68367L6.67627 7.50549Z" fill="#35332C"/>
<path id="Vector_4" d="M17.3235 7.50549C17.8472 7.81095 18.2399 8.37822 18.3272 9.03277C18.4581 10.1673 17.4981 11.2146 16.3635 11.1709C15.2726 11.1709 14.3999 10.2982 14.3999 9.20731C14.3999 9.03277 14.4435 8.85822 14.4872 8.68367L17.3235 7.50549Z" fill="#35332C"/>
</g>
<defs>
<clipPath id="clip0_292_880">
<rect width="24" height="24" fill="white"/>
</clipPath>
</defs>
</svg>
