<svg width="24" height="24" viewBox="0 0 24 24" fill="none" xmlns="http://www.w3.org/2000/svg">
<g id="Frame" clip-path="url(#clip0_292_837)">
<path id="Vector" d="M12 24C18.6274 24 24 18.6274 24 12C24 5.37258 18.6274 0 12 0C5.37258 0 0 5.37258 0 12C0 18.6274 5.37258 24 12 24Z" fill="#FFDF86"/>
<g id="Group">
<path id="Vector_2" d="M7.63624 11.1709C8.72073 11.1709 9.59988 10.2918 9.59988 9.20729C9.59988 8.1228 8.72073 7.24365 7.63624 7.24365C6.55176 7.24365 5.67261 8.1228 5.67261 9.20729C5.67261 10.2918 6.55176 11.1709 7.63624 11.1709Z" fill="#35332C"/>
<path id="Vector_3" d="M16.3635 11.1709C17.448 11.1709 18.3272 10.2918 18.3272 9.20729C18.3272 8.1228 17.448 7.24365 16.3635 7.24365C15.2791 7.24365 14.3999 8.1228 14.3999 9.20729C14.3999 10.2918 15.2791 11.1709 16.3635 11.1709Z" fill="#35332C"/>
</g>
<path id="Vector_4" d="M5.23633 14.4437C5.97815 17.4546 8.72724 19.68 12 19.68C15.2727 19.68 18.0218 17.4546 18.7636 14.4437H5.23633Z" fill="#35332C" stroke="#35332C" stroke-width="0.436364" stroke-miterlimit="10" stroke-linecap="round" stroke-linejoin="round"/>
</g>
<defs>
<clipPath id="clip0_292_837">
<rect width="24" height="24" fill="white"/>
</clipPath>
</defs>
</svg>
