<svg width="24" height="24" viewBox="0 0 24 24" fill="none" xmlns="http://www.w3.org/2000/svg">
<g id="Frame" clip-path="url(#clip0_292_869)">
<path id="Vector" d="M12 24C18.6274 24 24 18.6274 24 12C24 5.37258 18.6274 0 12 0C5.37258 0 0 5.37258 0 12C0 18.6274 5.37258 24 12 24Z" fill="#F8A37D"/>
<g id="Group">
<path id="Vector_2" d="M7.63649 11.1709C8.72097 11.1709 9.60012 10.2918 9.60012 9.20729C9.60012 8.1228 8.72097 7.24365 7.63649 7.24365C6.552 7.24365 5.67285 8.1228 5.67285 9.20729C5.67285 10.2918 6.552 11.1709 7.63649 11.1709Z" fill="#35332C"/>
<path id="Vector_3" d="M16.3638 11.1709C17.4483 11.1709 18.3274 10.2918 18.3274 9.20729C18.3274 8.1228 17.4483 7.24365 16.3638 7.24365C15.2793 7.24365 14.4001 8.1228 14.4001 9.20729C14.4001 10.2918 15.2793 11.1709 16.3638 11.1709Z" fill="#35332C"/>
</g>
<path id="Vector_4" d="M12 14.1818C14.4437 14.1818 16.7128 15.2727 18.24 17.2364C18.5455 17.6291 18.4582 18.1527 18.1091 18.4582C17.7164 18.7636 17.1928 18.6764 16.8873 18.3273C15.7091 16.8 13.92 15.9709 12 15.9709C10.08 15.9709 8.29093 16.8436 7.11275 18.3273C6.8073 18.72 6.28366 18.7636 5.89093 18.4582C5.49821 18.1527 5.45457 17.6291 5.76002 17.2364C7.2873 15.2727 9.55639 14.1818 12 14.1818Z" fill="#35332C"/>
</g>
<defs>
<clipPath id="clip0_292_869">
<rect width="24" height="24" fill="white"/>
</clipPath>
</defs>
</svg>
