<svg width="24" height="24" viewBox="0 0 24 24" fill="none" xmlns="http://www.w3.org/2000/svg">
<g id="Frame" clip-path="url(#clip0_292_858)">
<path id="Vector" d="M12 24C18.6274 24 24 18.6274 24 12C24 5.37258 18.6274 0 12 0C5.37258 0 0 5.37258 0 12C0 18.6274 5.37258 24 12 24Z" fill="#FFDF86"/>
<g id="Group">
<path id="Vector_2" d="M7.63624 11.1709C8.72073 11.1709 9.59988 10.2918 9.59988 9.20729C9.59988 8.1228 8.72073 7.24365 7.63624 7.24365C6.55176 7.24365 5.67261 8.1228 5.67261 9.20729C5.67261 10.2918 6.55176 11.1709 7.63624 11.1709Z" fill="#35332C"/>
<path id="Vector_3" d="M16.3635 11.1709C17.448 11.1709 18.3272 10.2918 18.3272 9.20729C18.3272 8.1228 17.448 7.24365 16.3635 7.24365C15.2791 7.24365 14.3999 8.1228 14.3999 9.20729C14.3999 10.2918 15.2791 11.1709 16.3635 11.1709Z" fill="#35332C"/>
</g>
<path id="Vector_4" d="M16.0146 16.9309L8.29096 18.3709C7.81096 18.4582 7.37459 18.1527 7.28732 17.6727C7.20005 17.1927 7.5055 16.7564 7.9855 16.6691L15.7091 15.2291C16.1891 15.1418 16.6255 15.4473 16.7128 15.9273C16.8 16.4073 16.4946 16.8436 16.0146 16.9309Z" fill="#35332C"/>
</g>
<defs>
<clipPath id="clip0_292_858">
<rect width="24" height="24" fill="white"/>
</clipPath>
</defs>
</svg>
