<svg width="24" height="24" viewBox="0 0 24 24" fill="none" xmlns="http://www.w3.org/2000/svg">
<g id="Frame" clip-path="url(#clip0_292_847)">
<path id="Vector" d="M12 24C18.6274 24 24 18.6274 24 12C24 5.37258 18.6274 0 12 0C5.37258 0 0 5.37258 0 12C0 18.6274 5.37258 24 12 24Z" fill="#FFDF86"/>
<g id="Group">
<path id="Vector_2" d="M7.63649 11.1709C8.72097 11.1709 9.60012 10.2918 9.60012 9.20729C9.60012 8.1228 8.72097 7.24365 7.63649 7.24365C6.552 7.24365 5.67285 8.1228 5.67285 9.20729C5.67285 10.2918 6.552 11.1709 7.63649 11.1709Z" fill="#35332C"/>
<path id="Vector_3" d="M16.3638 11.1709C17.4483 11.1709 18.3274 10.2918 18.3274 9.20729C18.3274 8.1228 17.4483 7.24365 16.3638 7.24365C15.2793 7.24365 14.4001 8.1228 14.4001 9.20729C14.4001 10.2918 15.2793 11.1709 16.3638 11.1709Z" fill="#35332C"/>
</g>
<path id="Vector_4" d="M12 18.6328C9.55635 18.6328 7.28726 17.5419 5.75999 15.5782C5.45453 15.1855 5.5418 14.6619 5.8909 14.3564C6.28362 14.0509 6.80726 14.1382 7.11271 14.4873C8.2909 16.0146 10.08 16.8437 12 16.8437C13.92 16.8437 15.7091 15.9709 16.8873 14.4873C17.1927 14.0946 17.7163 14.0509 18.1091 14.3564C18.5018 14.6619 18.5454 15.1855 18.24 15.5782C16.7127 17.4982 14.4436 18.6328 12 18.6328Z" fill="#35332C"/>
</g>
<defs>
<clipPath id="clip0_292_847">
<rect width="24" height="24" fill="white"/>
</clipPath>
</defs>
</svg>
