<svg width="40" height="40" viewBox="0 0 40 40" fill="none" xmlns="http://www.w3.org/2000/svg">
<g clip-path="url(#clip0_11_812)">
<path d="M11.3164 30.786C11.3164 31.2757 11.8052 31.643 12.2941 31.643H19.7487H27.0811C27.5699 31.643 27.9365 31.2757 28.0587 30.786L29.7696 16.8298C29.8918 16.2177 29.403 15.728 28.792 15.728H19.6265H10.5832C9.97213 15.728 9.4833 16.2177 9.60551 16.8298L11.3164 30.786Z" stroke="black" stroke-width="2" stroke-miterlimit="10" stroke-linecap="round" stroke-linejoin="round"/>
<path d="M25.6146 15.7281C25.6146 12.4227 23.0482 9.85178 19.9931 9.60693C19.8709 9.60693 19.8709 9.60693 19.7487 9.60693H19.6265C16.4491 9.60693 13.7605 12.3002 13.7605 15.7281" stroke="black" stroke-width="2" stroke-miterlimit="10" stroke-linecap="round" stroke-linejoin="round"/>
<path d="M15.9603 23.6855H23.4149" stroke="black" stroke-width="2" stroke-miterlimit="10" stroke-linecap="round" stroke-linejoin="round"/>
</g>
<defs>
<clipPath id="clip0_11_812">
<rect width="21.875" height="23.75" fill="white" transform="translate(8.75 8.75)"/>
</clipPath>
</defs>
</svg>
