<svg width="32" height="32" viewBox="0 0 32 32" fill="none" xmlns="http://www.w3.org/2000/svg">
<g clip-path="url(#clip0_106_1469)">
<path d="M19.3184 8.23889H6.88318V20.6742H19.3184V8.23889Z" fill="white" stroke="black" stroke-width="1.33333" stroke-miterlimit="10" stroke-linecap="round" stroke-linejoin="round"/>
<path d="M26.7796 15.7001H19.3184V20.6742H26.7796V15.7001Z" fill="white" stroke="black" stroke-width="1.33333" stroke-miterlimit="10" stroke-linecap="round" stroke-linejoin="round"/>
<path d="M19.3184 15.7H26.7796L22.4272 11.3477H19.3184V15.7Z" fill="white" stroke="black" stroke-width="1.33333" stroke-miterlimit="10" stroke-linecap="round" stroke-linejoin="round"/>
<path d="M11.2355 23.1611C12.6091 23.1611 13.7226 22.0476 13.7226 20.6741C13.7226 19.3005 12.6091 18.187 11.2355 18.187C9.86196 18.187 8.74847 19.3005 8.74847 20.6741C8.74847 22.0476 9.86196 23.1611 11.2355 23.1611Z" fill="white" stroke="black" stroke-width="1.33333" stroke-miterlimit="10" stroke-linecap="round" stroke-linejoin="round"/>
<path d="M23.049 23.1611C24.4225 23.1611 25.536 22.0476 25.536 20.6741C25.536 19.3005 24.4225 18.187 23.049 18.187C21.6754 18.187 20.5619 19.3005 20.5619 20.6741C20.5619 22.0476 21.6754 23.1611 23.049 23.1611Z" fill="white" stroke="black" stroke-width="1.33333" stroke-miterlimit="10" stroke-linecap="round" stroke-linejoin="round"/>
<path d="M10.2407 12.4324H5.2666" stroke="black" stroke-width="1.33333" stroke-miterlimit="10" stroke-linecap="round" stroke-linejoin="round"/>
<path d="M10.7381 14.9193H4.52048" stroke="black" stroke-width="1.33333" stroke-miterlimit="10" stroke-linecap="round" stroke-linejoin="round"/>
</g>
<defs>
<clipPath id="clip0_106_1469">
<rect width="24" height="16.6633" fill="white" transform="translate(3.64999 7.36841)"/>
</clipPath>
</defs>
</svg>
