<svg width="40" height="40" viewBox="0 0 40 40" fill="none" xmlns="http://www.w3.org/2000/svg">
<path d="M20.0012 32.3525C22.797 32.3525 25.0635 30.05 25.0635 27.2097C25.0635 24.3694 22.797 22.0669 20.0012 22.0669C17.2054 22.0669 14.9389 24.3694 14.9389 27.2097C14.9389 30.05 17.2054 32.3525 20.0012 32.3525Z" fill="white" stroke="black" stroke-width="2" stroke-miterlimit="10"/>
<path d="M28.8589 20.2103V16.3532C28.8589 11.3532 24.9216 7.35327 19.9999 7.35327C15.0783 7.35327 11.1409 11.3532 11.1409 16.3532V20.2103L9.17227 23.3531C8.04732 25.0674 9.31289 27.3531 11.2816 27.3531H16.0626H19.7187H20.1406H23.5154H28.7183C30.687 27.3531 31.9526 25.0674 30.8276 23.3531L28.8589 20.2103Z" fill="white" stroke="black" stroke-width="2" stroke-miterlimit="10"/>
</svg>
