<svg width="24" height="24" viewBox="0 0 24 24" fill="none" xmlns="http://www.w3.org/2000/svg">
<path d="M12.2776 4.79475L14.3309 8.64249C14.3309 8.86883 14.559 8.86883 14.7872 8.86883L19.122 9.54784C19.5783 9.54784 19.5783 10.0005 19.3501 10.2269L16.1561 13.1692C15.9279 13.3956 15.9279 13.3956 15.9279 13.6219L16.6124 17.696C16.6124 18.1487 16.3842 18.375 15.9279 18.1487L12.2776 16.338C12.0494 16.338 12.0494 16.338 11.8213 16.338L7.94278 18.375C7.48649 18.375 7.03019 18.1487 7.25834 17.9223L7.94278 13.6219C7.94278 13.3956 7.94278 13.3956 7.71463 13.1692L4.74872 10.2269C4.29242 10.0005 4.52057 9.54784 4.97687 9.54784L9.31166 8.86883C9.53981 8.86883 9.53981 8.86883 9.76796 8.64249L11.8213 4.79475C11.8213 4.56842 12.2776 4.56842 12.2776 4.79475Z" fill="#FFC700"/>
</svg>
