<svg width="55" height="55" viewBox="0 0 55 55" fill="none" xmlns="http://www.w3.org/2000/svg">
<circle cx="27.5" cy="27.5" r="27.5" fill="url(#paint0_linear_648_1073)"/>
<g clip-path="url(#clip0_648_1073)">
<path d="M38.8343 15.4445H22.991C21.241 15.4445 19.8254 16.86 19.8254 18.61V26.5356C19.8254 28.2856 21.241 29.7011 22.991 29.7011H32.9699C33.3899 29.7011 33.7943 29.8645 34.0899 30.1678L37.6054 33.6834C37.8932 33.9711 38.3754 33.7689 38.3754 33.3645V30.1523C38.3754 29.9034 38.5777 29.7011 38.8266 29.7011C40.5766 29.7011 41.9921 28.2856 41.9921 26.5356V18.61C41.9921 16.86 40.5766 15.4445 38.8266 15.4445H38.8343ZM28.1399 23.5645C27.5954 23.5645 27.1521 23.1211 27.1521 22.5767C27.1521 22.0322 27.5954 21.5889 28.1399 21.5889C28.6843 21.5889 29.1277 22.0322 29.1277 22.5767C29.1277 23.1211 28.6843 23.5645 28.1399 23.5645ZM30.9088 23.5645C30.3643 23.5645 29.921 23.1211 29.921 22.5767C29.921 22.0322 30.3643 21.5889 30.9088 21.5889C31.4532 21.5889 31.8966 22.0322 31.8966 22.5767C31.8966 23.1211 31.4532 23.5645 30.9088 23.5645ZM33.6777 23.5645C33.1332 23.5645 32.6899 23.1211 32.6899 22.5767C32.6899 22.0322 33.1332 21.5889 33.6777 21.5889C34.2221 21.5889 34.6654 22.0322 34.6654 22.5767C34.6654 23.1211 34.2221 23.5645 33.6777 23.5645Z" fill="white"/>
<path d="M22.9911 32.0811C19.9267 32.0811 17.4456 29.6 17.4456 26.5356V21.2622C17.4456 21.1144 17.3211 20.99 17.1734 20.99C15.4234 20.99 14.0078 22.4055 14.0078 24.1555V32.0811C14.0078 33.8389 15.4389 35.2622 17.1967 35.2467C17.4378 35.2467 17.6245 35.4567 17.6245 35.6978V38.91C17.6245 39.3145 18.1145 39.5167 18.3945 39.2289L21.91 35.7133C22.2056 35.4178 22.61 35.2467 23.03 35.2467H33.0089C33.6778 35.2467 34.2923 35.0289 34.7978 34.6789C34.9378 34.5856 34.9456 34.3833 34.8211 34.2667L32.7134 32.1589C32.6589 32.1044 32.5889 32.0811 32.5189 32.0811H22.9756H22.9911Z" fill="white"/>
<path d="M22.9912 29.7011H32.9701C33.3901 29.7011 33.7945 29.8644 34.0901 30.1678L36.1668 32.2444C36.1668 32.19 36.1823 32.1356 36.1823 32.0811V24.1555C36.1823 22.4055 34.7668 20.99 33.0168 20.99H19.8179V26.5356C19.8179 28.2856 21.2334 29.7011 22.9834 29.7011H22.9912ZM33.6856 21.5811C34.2301 21.5811 34.6734 22.0244 34.6734 22.5689C34.6734 23.1133 34.2301 23.5567 33.6856 23.5567C33.1412 23.5567 32.6979 23.1133 32.6979 22.5689C32.6979 22.0244 33.1412 21.5811 33.6856 21.5811ZM30.9168 21.5811C31.4612 21.5811 31.9045 22.0244 31.9045 22.5689C31.9045 23.1133 31.4612 23.5567 30.9168 23.5567C30.3723 23.5567 29.929 23.1133 29.929 22.5689C29.929 22.0244 30.3723 21.5811 30.9168 21.5811ZM28.1479 21.5811C28.6923 21.5811 29.1356 22.0244 29.1356 22.5689C29.1356 23.1133 28.6923 23.5567 28.1479 23.5567C27.6034 23.5567 27.1601 23.1133 27.1601 22.5689C27.1601 22.0244 27.6034 21.5811 28.1479 21.5811ZM27.8756 27.1267C28.4201 27.1267 28.8634 27.57 28.8634 28.1144C28.8634 28.6589 28.4201 29.1022 27.8756 29.1022C27.3312 29.1022 26.8879 28.6589 26.8879 28.1144C26.8879 27.57 27.3312 27.1267 27.8756 27.1267ZM25.1068 27.1267C25.6512 27.1267 26.0945 27.57 26.0945 28.1144C26.0945 28.6589 25.6512 29.1022 25.1068 29.1022C24.5623 29.1022 24.119 28.6589 24.119 28.1144C24.119 27.57 24.5623 27.1267 25.1068 27.1267ZM22.3379 27.1267C22.8823 27.1267 23.3256 27.57 23.3256 28.1144C23.3256 28.6589 22.8823 29.1022 22.3379 29.1022C21.7934 29.1022 21.3501 28.6589 21.3501 28.1144C21.3501 27.57 21.7934 27.1267 22.3379 27.1267Z" fill="white"/>
</g>
<defs>
<linearGradient id="paint0_linear_648_1073" x1="0" y1="0" x2="55" y2="55" gradientUnits="userSpaceOnUse">
<stop stop-color="#4D73FF"/>
<stop offset="1" stop-color="#2050D5"/>
</linearGradient>
<clipPath id="clip0_648_1073">
<rect width="28" height="24.1111" fill="white" transform="translate(14 15.4445)"/>
</clipPath>
</defs>
</svg>
