<svg width="100" height="100" viewBox="0 0 100 100" fill="none" xmlns="http://www.w3.org/2000/svg">
<rect width="100" height="100" rx="24" fill="white"/>
<path d="M23.4506 65.7761H23.3889C21.8205 65.7761 20.549 67.0452 20.549 68.6108V68.6652C20.549 70.2308 21.8205 71.4999 23.3889 71.4999H23.4506C25.019 71.4999 26.2905 70.2308 26.2905 68.6652V68.6108C26.2905 67.0452 25.019 65.7761 23.4506 65.7761Z" fill="#06C755"/>
<path d="M21.7292 39.0671H17.8399C16.2715 39.0671 15 40.3362 15 41.9018V41.9562C15 43.5218 16.2715 44.7909 17.8399 44.7909H21.7292C23.2977 44.7909 24.5691 43.5218 24.5691 41.9562V41.9018C24.5691 40.3362 23.2977 39.0671 21.7292 39.0671Z" fill="#4D73FF"/>
<path d="M31.4473 28H29.4717C27.9033 28 26.6319 29.2692 26.6319 30.8347V30.8891C26.6319 32.4547 27.9033 33.7239 29.4717 33.7239H31.4473C33.0157 33.7239 34.2871 32.4547 34.2871 30.8891V30.8347C34.2871 29.2692 33.0157 28 31.4473 28Z" fill="black"/>
<path d="M78.2361 44.8417C79.5432 43.2655 80.4268 41.383 80.8036 39.3716C81.4549 35.9351 80.4865 33.1801 77.8984 31.1066C75.3103 29.0331 71.1147 27.9976 65.3114 28H40.2538C39.4936 28 38.7644 28.3012 38.2265 28.8375C37.6885 29.3738 37.3859 30.1012 37.3849 30.8601C37.3849 31.6196 37.6872 32.348 38.2252 32.8851C38.7632 33.4222 39.4929 33.7239 40.2538 33.7239H42.3819C43.0917 33.7239 43.7725 34.0053 44.2744 34.5064C44.7764 35.0074 45.0583 35.6869 45.0583 36.3955C45.0583 37.104 44.7764 37.7836 44.2744 38.2846C43.7725 38.7856 43.0917 39.0671 42.3819 39.0671H31.0951C30.7183 39.0666 30.3452 39.1402 29.9969 39.2837C29.6486 39.4272 29.3321 39.6377 29.0654 39.9033C28.7986 40.1689 28.5869 40.4843 28.4423 40.8316C28.2977 41.1789 28.223 41.5512 28.2225 41.9272C28.2235 42.6871 28.5265 43.4155 29.0652 43.9524C29.6038 44.4894 30.3338 44.791 31.0951 44.791H35.5691C35.9201 44.791 36.2677 44.86 36.592 44.9941C36.9163 45.1281 37.2109 45.3247 37.4591 45.5724C37.7073 45.8202 37.9042 46.1143 38.0385 46.438C38.1728 46.7617 38.2419 47.1086 38.2419 47.459C38.2419 48.1675 37.96 48.8471 37.458 49.3481C36.9561 49.8491 36.2753 50.1306 35.5655 50.1306H33.7751C33.3967 50.1306 33.022 50.2052 32.6725 50.3502C32.323 50.4952 32.0057 50.7077 31.7388 50.9755C31.4719 51.2433 31.2606 51.5611 31.1171 51.9107C30.9736 52.2603 30.9007 52.6347 30.9026 53.0125C30.9031 53.3885 30.9778 53.7608 31.1224 54.1081C31.267 54.4553 31.4787 54.7708 31.7454 55.0364C32.0122 55.302 32.3287 55.5125 32.677 55.656C33.0252 55.7994 33.3984 55.873 33.7751 55.8726H36.6804L34.7992 65.7942H31.8214C31.0602 65.7942 30.3301 66.0958 29.7915 66.6327C29.2529 67.1697 28.9498 67.8981 28.9488 68.6579C28.9517 69.034 29.0287 69.4058 29.1755 69.7522C29.3223 70.0985 29.5361 70.4126 29.8045 70.6765C30.0729 70.9405 30.3908 71.149 30.74 71.2903C31.0891 71.4315 31.4628 71.5028 31.8395 71.4999H58.3062C64.291 71.4999 69.0628 70.4535 72.6217 68.3607C76.1807 66.2678 78.3208 63.3159 79.0423 59.5048C79.5265 56.9383 79.236 54.7428 78.1707 52.9182C77.1055 51.0936 75.3732 49.7065 72.974 48.7567C75.0061 47.8727 76.8067 46.533 78.2361 44.8417ZM64.5161 57.8301C64.0852 60.1066 62.2476 61.2448 59.0035 61.2448H50.1461L51.4426 54.4117H60.2999C63.5441 54.4117 64.9495 55.5512 64.5161 57.8301ZM65.5584 41.485C65.1492 43.6382 63.3444 44.7148 60.1438 44.7148H53.2838L54.5076 38.2551H61.3676C64.5706 38.2551 65.9675 39.3317 65.5584 41.485Z" fill="black"/>
</svg>
