<svg width="32" height="32" viewBox="0 0 32 32" fill="none" xmlns="http://www.w3.org/2000/svg">
<circle cx="16" cy="16" r="16" fill="url(#paint0_linear_242_1153)"/>
<g clip-path="url(#clip0_242_1153)">
<path d="M9.25199 20.0848H9.23553C8.81758 20.0848 8.47876 20.4237 8.47876 20.8416V20.8561C8.47876 21.2741 8.81758 21.6129 9.23553 21.6129H9.25199C9.66994 21.6129 10.0088 21.2741 10.0088 20.8561V20.8416C10.0088 20.4237 9.66994 20.0848 9.25199 20.0848Z" fill="white"/>
<path d="M8.79323 12.9545H7.75677C7.33882 12.9545 7 13.2933 7 13.7113V13.7258C7 14.1438 7.33882 14.4826 7.75677 14.4826H8.79323C9.21118 14.4826 9.55 14.1438 9.55 13.7258V13.7113C9.55 13.2933 9.21118 12.9545 8.79323 12.9545Z" fill="white"/>
<path d="M11.3828 10H10.8564C10.4384 10 10.0996 10.3388 10.0996 10.7568V10.7713C10.0996 11.1892 10.4384 11.5281 10.8564 11.5281H11.3828C11.8008 11.5281 12.1396 11.1892 12.1396 10.7713V10.7568C12.1396 10.3388 11.8008 10 11.3828 10Z" fill="white"/>
<path d="M23.8514 14.4961C24.1997 14.0753 24.4352 13.5728 24.5356 13.0358C24.7092 12.1184 24.4511 11.3829 23.7614 10.8294C23.0717 10.2758 21.9537 9.99936 20.4072 10H13.7298C13.5272 10 13.3329 10.0804 13.1896 10.2236C13.0462 10.3667 12.9656 10.561 12.9653 10.7635C12.9653 10.9663 13.0458 11.1608 13.1892 11.3041C13.3326 11.4475 13.527 11.5281 13.7298 11.5281H14.2969C14.4861 11.5281 14.6675 11.6032 14.8012 11.737C14.935 11.8707 15.0101 12.0521 15.0101 12.2413C15.0101 12.4304 14.935 12.6119 14.8012 12.7456C14.6675 12.8794 14.4861 12.9545 14.2969 12.9545H11.2892C11.1888 12.9544 11.0893 12.974 10.9965 13.0123C10.9037 13.0506 10.8194 13.1068 10.7483 13.1778C10.6772 13.2487 10.6208 13.3329 10.5822 13.4256C10.5437 13.5183 10.5238 13.6177 10.5237 13.7181C10.5239 13.9209 10.6047 14.1154 10.7482 14.2587C10.8918 14.4021 11.0863 14.4826 11.2892 14.4826H12.4814C12.575 14.4826 12.6676 14.501 12.754 14.5368C12.8404 14.5726 12.9189 14.6251 12.9851 14.6912C13.0512 14.7573 13.1037 14.8359 13.1395 14.9223C13.1753 15.0087 13.1937 15.1013 13.1937 15.1948C13.1937 15.384 13.1185 15.5654 12.9848 15.6992C12.851 15.8329 12.6696 15.9081 12.4805 15.9081H12.0034C11.9025 15.9081 11.8026 15.928 11.7095 15.9667C11.6164 16.0054 11.5318 16.0621 11.4607 16.1336C11.3896 16.2051 11.3333 16.29 11.295 16.3833C11.2568 16.4766 11.2374 16.5766 11.2379 16.6774C11.238 16.7778 11.2579 16.8772 11.2964 16.9699C11.335 17.0626 11.3914 17.1468 11.4625 17.2177C11.5336 17.2886 11.6179 17.3448 11.7107 17.3831C11.8035 17.4214 11.903 17.4411 12.0034 17.441H12.7776L12.2763 20.0897H11.4827C11.2799 20.0897 11.0853 20.1702 10.9418 20.3135C10.7982 20.4569 10.7175 20.6513 10.7172 20.8542C10.718 20.9546 10.7385 21.0538 10.7776 21.1463C10.8168 21.2388 10.8737 21.3226 10.9453 21.3931C11.0168 21.4635 11.1015 21.5192 11.1945 21.5569C11.2876 21.5946 11.3872 21.6137 11.4876 21.6129H18.5405C20.1353 21.6129 21.4069 21.3335 22.3553 20.7748C23.3037 20.2161 23.874 19.4281 24.0663 18.4106C24.1953 17.7255 24.1179 17.1393 23.834 16.6523C23.5501 16.1652 23.0885 15.7948 22.4492 15.5413C22.9907 15.3053 23.4705 14.9476 23.8514 14.4961ZM20.1953 17.9635C20.0805 18.5713 19.5908 18.8752 18.7263 18.8752H16.3659L16.7114 17.051H19.0717C19.9363 17.051 20.3108 17.3552 20.1953 17.9635ZM20.473 13.6C20.364 14.1748 19.883 14.4623 19.0301 14.4623H17.2021L17.5282 12.7377H19.3563C20.2098 12.7377 20.5821 13.0252 20.473 13.6Z" fill="white"/>
</g>
<defs>
<linearGradient id="paint0_linear_242_1153" x1="0" y1="0" x2="32" y2="32" gradientUnits="userSpaceOnUse">
<stop stop-color="#638DFF"/>
<stop offset="1" stop-color="#1E4BF4"/>
</linearGradient>
<clipPath id="clip0_242_1153">
<rect width="18" height="11.6129" fill="white" transform="translate(7 10)"/>
</clipPath>
</defs>
</svg>
