<svg width="84" height="20" viewBox="0 0 84 20" fill="none" xmlns="http://www.w3.org/2000/svg">
<g clip-path="url(#clip0_46_8124)">
<path d="M42.2583 2.945C41.8317 3.28611 41.55 3.85778 41.4133 4.66L41.235 5.66H43.8467L43.4367 8.04167H40.8333L38.75 19.77H35.805L37.88 8.04167H36.2133L36.625 5.66667H38.2917L38.47 4.66667C38.76 3.04556 39.4005 1.86333 40.3917 1.12C41.3828 0.376666 42.7989 0.00333333 44.64 0L44.23 2.43333C43.3433 2.43333 42.6861 2.60389 42.2583 2.945Z" fill="#070707"/>
<path d="M50.9783 6.14666C51.778 5.66626 52.6955 5.41757 53.6283 5.42833L53.09 8.45H52.3483C51.2216 8.45 50.3166 8.73222 49.6333 9.29666C48.95 9.86111 48.4722 10.8339 48.2 12.215L46.8666 19.77H43.9483L46.4316 5.66666H49.3516L48.9166 8.15C49.449 7.33941 50.1528 6.65554 50.9783 6.14666Z" fill="#070707"/>
<path d="M65.9583 6.91498C67.0083 7.90498 67.5333 9.23831 67.5333 10.915C67.5261 11.3875 67.4832 11.8589 67.405 12.325C67.3129 12.7922 67.1932 13.2536 67.0467 13.7066H56.265C56.2453 13.8854 56.237 14.0652 56.24 14.245C56.24 15.2516 56.5517 16.0539 57.175 16.6516C57.7983 17.2494 58.6133 17.5483 59.62 17.5483C61.2078 17.5483 62.43 16.8911 63.2867 15.5766H66.4367C65.7843 16.8778 64.7935 17.9792 63.5683 18.765C62.2626 19.6035 60.7364 20.0335 59.185 20C58.1114 20.0242 57.048 19.7868 56.0867 19.3083C55.2153 18.8645 54.4937 18.1742 54.0117 17.3233C53.5004 16.3956 53.2444 15.3489 53.27 14.29C53.273 13.757 53.3243 13.2254 53.4233 12.7016C53.649 11.3227 54.1828 10.0124 54.985 8.86831C55.7422 7.79808 56.7483 6.92807 57.9167 6.33331C59.1041 5.73164 60.4188 5.42412 61.75 5.43665C63.5044 5.43109 64.9072 5.92387 65.9583 6.91498ZM64.5367 10.935C64.5367 9.9972 64.2255 9.25443 63.6033 8.70665C62.9811 8.15887 62.1744 7.88554 61.1833 7.88665C60.1561 7.88142 59.1592 8.23512 58.365 8.88665C57.5112 9.57853 56.9086 10.5319 56.65 11.6H64.4833C64.5189 11.2933 64.5367 11.0716 64.5367 10.935Z" fill="#070707"/>
<path d="M81.7583 6.91498C82.8083 7.90498 83.3333 9.23831 83.3333 10.915C83.3261 11.3875 83.2832 11.8589 83.205 12.325C83.1129 12.7922 82.9932 13.2536 82.8466 13.7066H72.065C72.0453 13.8854 72.0369 14.0652 72.04 14.245C72.04 15.2516 72.3516 16.0539 72.975 16.6516C73.5983 17.2494 74.4133 17.5483 75.42 17.5483C77.0089 17.5483 78.2311 16.8911 79.0866 15.5766H82.2366C81.5843 16.8778 80.5935 17.9792 79.3683 18.765C78.0625 19.6033 76.5364 20.0333 74.985 20C73.9114 20.0242 72.848 19.7868 71.8866 19.3083C71.0153 18.8645 70.2936 18.1742 69.8116 17.3233C69.3004 16.3956 69.0444 15.3489 69.07 14.29C69.073 13.757 69.1243 13.2254 69.2233 12.7016C69.449 11.3227 69.9828 10.0124 70.785 8.86831C71.5422 7.79808 72.5483 6.92807 73.7166 6.33331C74.9041 5.73164 76.2188 5.42412 77.55 5.43665C79.3044 5.43109 80.7072 5.92387 81.7583 6.91498ZM80.3333 10.935C80.3333 9.9972 80.0222 9.25443 79.4 8.70665C78.7778 8.15887 77.9722 7.88554 76.9833 7.88665C75.956 7.88142 74.9592 8.23512 74.165 8.88665C73.3112 9.57853 72.7086 10.5319 72.45 11.6H80.2833C80.3166 11.2933 80.3333 11.0716 80.3333 10.935Z" fill="#070707"/>
<path d="M3.87833 17.3683H3.84999C3.13018 17.3683 2.54666 17.9519 2.54666 18.6717V18.6967C2.54666 19.4165 3.13018 20 3.84999 20H3.87833C4.59814 20 5.18166 19.4165 5.18166 18.6967V18.6717C5.18166 17.9519 4.59814 17.3683 3.87833 17.3683Z" fill="#35D48D"/>
<path d="M3.0883 5.08832H1.3033C0.583492 5.08832 -3.05176e-05 5.67184 -3.05176e-05 6.39165V6.41665C-3.05176e-05 7.13646 0.583492 7.71998 1.3033 7.71998H3.0883C3.80811 7.71998 4.39164 7.13646 4.39164 6.41665V6.39165C4.39164 5.67184 3.80811 5.08832 3.0883 5.08832Z" fill="#2568FA"/>
<path d="M7.54832 0H6.64165C5.92184 0 5.33832 0.583522 5.33832 1.30333V1.32833C5.33832 2.04814 5.92184 2.63167 6.64165 2.63167H7.54832C8.26813 2.63167 8.85165 2.04814 8.85165 1.32833V1.30333C8.85165 0.583522 8.26813 0 7.54832 0Z" fill="#070707"/>
<path d="M29.0217 7.74334C29.6216 7.01861 30.0271 6.1531 30.2 5.22834C30.4989 3.64834 30.0544 2.38167 28.8667 1.42834C27.6789 0.475002 25.7533 -0.00110917 23.09 1.94024e-06H11.59C11.2411 1.66071e-06 10.9064 0.138493 10.6596 0.385055C10.4127 0.631618 10.2738 0.966089 10.2733 1.315C10.2733 1.6642 10.412 1.9991 10.659 2.24603C10.9059 2.49295 11.2408 2.63167 11.59 2.63167H12.5667C12.8924 2.63167 13.2049 2.76108 13.4352 2.99144C13.6656 3.2218 13.795 3.53423 13.795 3.86C13.795 4.18578 13.6656 4.49821 13.4352 4.72856C13.2049 4.95892 12.8924 5.08834 12.5667 5.08834H7.38666C7.21376 5.08812 7.0425 5.12196 6.88267 5.18792C6.72284 5.25389 6.57757 5.35069 6.45515 5.4728C6.33273 5.59491 6.23556 5.73993 6.16919 5.8996C6.10282 6.05926 6.06855 6.23043 6.06833 6.40334C6.06877 6.75269 6.20786 7.08759 6.45505 7.33446C6.70224 7.58134 7.03731 7.72 7.38666 7.72H9.44C9.60108 7.72 9.76059 7.75173 9.90942 7.81338C10.0582 7.87502 10.1935 7.96538 10.3074 8.07928C10.4213 8.19319 10.5116 8.32842 10.5733 8.47724C10.6349 8.62607 10.6667 8.78558 10.6667 8.94667C10.6667 9.27244 10.5372 9.58488 10.3069 9.81523C10.0765 10.0456 9.7641 10.175 9.43833 10.175H8.61666C8.44297 10.175 8.271 10.2093 8.11061 10.276C7.95023 10.3427 7.8046 10.4404 7.6821 10.5635C7.55959 10.6866 7.46262 10.8327 7.39676 10.9935C7.3309 11.1542 7.29745 11.3263 7.29833 11.5C7.29855 11.6729 7.33282 11.8441 7.39919 12.0037C7.46556 12.1634 7.56273 12.3084 7.68515 12.4305C7.80757 12.5526 7.95284 12.6495 8.11267 12.7154C8.2725 12.7814 8.44375 12.8152 8.61666 12.815H9.95L9.08666 17.3767H7.72C7.37064 17.3767 7.03557 17.5153 6.78838 17.7622C6.54119 18.0091 6.4021 18.344 6.40166 18.6933C6.40297 18.8662 6.43832 19.0372 6.5057 19.1964C6.57308 19.3557 6.67117 19.5001 6.79436 19.6214C6.91756 19.7428 7.06344 19.8387 7.2237 19.9036C7.38395 19.9686 7.55542 20.0013 7.72833 20H19.875C22.6217 20 24.8117 19.5189 26.445 18.5567C28.0783 17.5944 29.0606 16.2372 29.3917 14.485C29.6139 13.305 29.4806 12.2956 28.9917 11.4567C28.5028 10.6178 27.7078 9.98 26.6067 9.54334C27.5393 9.13687 28.3657 8.52093 29.0217 7.74334ZM22.725 13.715C22.5272 14.7617 21.6839 15.285 20.195 15.285H16.13L16.725 12.1433H20.79C22.2789 12.1433 22.9239 12.6672 22.725 13.715ZM23.2033 6.2C23.0156 7.19 22.1872 7.685 20.7183 7.685H17.57L18.1317 4.715H21.28C22.75 4.715 23.3911 5.21 23.2033 6.2Z" fill="#070707"/>
</g>
<defs>
<clipPath id="clip0_46_8124">
<rect width="83.3333" height="20" fill="white"/>
</clipPath>
</defs>
</svg>
